<svg width="19" height="20" viewBox="0 0 19 20" fill="none" xmlns="http://www.w3.org/2000/svg">
<path d="M18.9981 10.7984C18.8428 12.6045 18.175 14.3287 17.0731 15.7681C15.9712 17.2075 14.4811 18.3023 12.7782 18.9236C11.0752 19.5449 9.23024 19.6669 7.46031 19.2752C5.69038 18.8835 4.06913 17.9945 2.78732 16.7127C1.50552 15.4309 0.616472 13.8096 0.224796 12.0397C-0.16688 10.2698 -0.0448932 8.42479 0.576403 6.72183C1.1977 5.01888 2.29246 3.5288 3.73187 2.42691C5.17128 1.32503 6.89547 0.657176 8.70156 0.50194C8.84985 0.489582 8.99698 0.536639 9.11057 0.63276C9.22417 0.72888 9.29493 0.866189 9.30729 1.01448C9.31965 1.16277 9.27259 1.3099 9.17647 1.4235C9.08035 1.5371 8.94304 1.60786 8.79475 1.62021C7.20052 1.75674 5.67845 2.3458 4.40767 3.31807C3.13689 4.29034 2.17027 5.60537 1.62155 7.10841C1.07284 8.61144 0.96487 10.2399 1.31035 11.8023C1.65583 13.3646 2.44038 14.7957 3.57168 15.9272C4.70298 17.0588 6.13395 17.8436 7.6962 18.1894C9.25845 18.5352 10.887 18.4276 12.3901 17.8792C13.8933 17.3308 15.2085 16.3644 16.181 15.0938C17.1536 13.8233 17.7429 12.3013 17.8798 10.7071C17.8859 10.6337 17.9064 10.5622 17.9402 10.4967C17.9739 10.4312 18.0203 10.373 18.0765 10.3254C18.1901 10.2293 18.3372 10.1822 18.4855 10.1946C18.5589 10.2007 18.6304 10.2212 18.6959 10.255C18.7614 10.2887 18.8196 10.335 18.8672 10.3913C18.9148 10.4475 18.9509 10.5126 18.9733 10.5828C18.9958 10.653 19.0042 10.7269 18.9981 10.8003V10.7984ZM8.9336 4.78866V10.0073C8.9336 10.1556 8.99251 10.2978 9.09737 10.4026C9.20222 10.5075 9.34444 10.5664 9.49273 10.5664H14.7113C14.8596 10.5664 15.0019 10.5075 15.1067 10.4026C15.2116 10.2978 15.2705 10.1556 15.2705 10.0073C15.2705 9.85897 15.2116 9.71675 15.1067 9.6119C15.0019 9.50704 14.8596 9.44813 14.7113 9.44813H10.0519V4.78866C10.0519 4.64036 9.99296 4.49814 9.88811 4.39329C9.78325 4.28843 9.64103 4.22952 9.49273 4.22952C9.34444 4.22952 9.20222 4.28843 9.09737 4.39329C8.99251 4.49814 8.9336 4.64036 8.9336 4.78866ZM12.4748 2.36573C12.6591 2.36573 12.8393 2.31107 12.9925 2.20868C13.1458 2.10628 13.2652 1.96074 13.3358 1.79045C13.4063 1.62017 13.4247 1.4328 13.3888 1.25203C13.3528 1.07126 13.2641 0.905213 13.1337 0.774885C13.0034 0.644557 12.8374 0.555803 12.6566 0.519846C12.4758 0.483888 12.2885 0.502343 12.1182 0.572876C11.9479 0.643409 11.8024 0.762852 11.7 0.916101C11.5976 1.06935 11.5429 1.24952 11.5429 1.43383C11.5429 1.55621 11.567 1.67739 11.6138 1.79045C11.6607 1.90352 11.7293 2.00625 11.8158 2.09278C11.9906 2.26755 12.2276 2.36573 12.4748 2.36573ZM15.8296 4.60228C16.0139 4.60228 16.1941 4.54762 16.3474 4.44522C16.5006 4.34283 16.62 4.19728 16.6906 4.027C16.7611 3.85672 16.7796 3.66935 16.7436 3.48858C16.7077 3.30781 16.6189 3.14176 16.4886 3.01143C16.3582 2.8811 16.1922 2.79235 16.0114 2.75639C15.8307 2.72044 15.6433 2.73889 15.473 2.80942C15.3027 2.87996 15.1572 2.9994 15.0548 3.15265C14.9524 3.3059 14.8977 3.48607 14.8977 3.67038C14.8977 3.91754 14.9959 4.15457 15.1707 4.32933C15.3454 4.50409 15.5825 4.60228 15.8296 4.60228ZM18.0662 7.9571C18.2505 7.9571 18.4307 7.90244 18.5839 7.80004C18.7372 7.69765 18.8566 7.5521 18.9271 7.38182C18.9977 7.21154 19.0161 7.02417 18.9802 6.8434C18.9442 6.66263 18.8554 6.49658 18.7251 6.36625C18.5948 6.23593 18.4287 6.14717 18.248 6.11121C18.0672 6.07526 17.8798 6.09371 17.7095 6.16424C17.5393 6.23478 17.3937 6.35422 17.2913 6.50747C17.1889 6.66072 17.1343 6.84089 17.1343 7.0252C17.1343 7.27236 17.2325 7.50939 17.4072 7.68415C17.582 7.85892 17.819 7.9571 18.0662 7.9571Z" fill="#E90102"/>
</svg>
