<svg width="19" height="19" viewBox="0 0 19 19" fill="none" xmlns="http://www.w3.org/2000/svg">
<path d="M17.5851 0H1.41489C1.03964 0 0.679757 0.142983 0.414413 0.397494C0.149069 0.652006 0 0.997197 0 1.35713V6.78565C0 11.8206 2.53872 14.8703 4.66915 16.5415C6.96633 18.3445 9.24431 18.9543 9.34032 18.9795C9.44486 19.0068 9.55514 19.0068 9.65968 18.9795C9.75569 18.9543 12.0337 18.3445 14.3309 16.5415C16.4613 14.8703 19 11.8206 19 6.78565V1.35713C19 0.997197 18.8509 0.652006 18.5856 0.397494C18.3202 0.142983 17.9604 0 17.5851 0ZM17.7872 6.78565C17.7872 10.446 16.3784 13.4152 13.5991 15.6128C12.3799 16.5731 10.9918 17.317 9.5 17.8094C8.00803 17.3175 6.6198 16.5735 5.40085 15.6128C2.6216 13.4152 1.21277 10.446 1.21277 6.78565V1.35713C1.21277 1.30571 1.23406 1.2564 1.27197 1.22004C1.30987 1.18368 1.36129 1.16325 1.41489 1.16325H17.5851C17.6387 1.16325 17.6901 1.18368 17.728 1.22004C17.7659 1.2564 17.7872 1.30571 17.7872 1.35713V6.78565ZM13.9711 5.59913C14.0846 5.70819 14.1484 5.85602 14.1484 6.01015C14.1484 6.16428 14.0846 6.31211 13.9711 6.42117L8.31149 11.8497C8.19779 11.9586 8.04367 12.0198 7.88298 12.0198C7.72229 12.0198 7.56817 11.9586 7.45447 11.8497L5.02894 9.52318C4.92182 9.41292 4.86351 9.26709 4.86628 9.11641C4.86906 8.96573 4.9327 8.82196 5.0438 8.7154C5.1549 8.60883 5.30478 8.54779 5.46188 8.54513C5.61897 8.54248 5.77101 8.59841 5.88596 8.70115L7.88298 10.6157L13.114 5.59913C13.2277 5.49021 13.3819 5.42903 13.5426 5.42903C13.7032 5.42903 13.8574 5.49021 13.9711 5.59913Z" fill="#E90102"/>
</svg>
